<mxfile host="Electron" modified="2023-12-25T12:43:07.358Z" agent="Mozilla/5.0 (Windows NT 10.0; Win64; x64) AppleWebKit/537.36 (KHTML, like Gecko) draw.io/21.2.8 Chrome/112.0.5615.165 Electron/24.2.0 Safari/537.36" etag="dlSs_Si9Ben780iPhgyn" version="21.2.8" type="device">
  <diagram name="第 1 页" id="1yvS7-_J6Agow_tQRhoN">
    <mxGraphModel dx="3018" dy="828" grid="1" gridSize="10" guides="1" tooltips="1" connect="1" arrows="1" fold="1" page="1" pageScale="1" pageWidth="1600" pageHeight="1200" math="0" shadow="0">
      <root>
        <mxCell id="0" />
        <mxCell id="1" parent="0" />
        <mxCell id="0rEUQk80sUEZ4fooKw1v-3" style="edgeStyle=orthogonalEdgeStyle;rounded=0;orthogonalLoop=1;jettySize=auto;html=1;exitX=0.5;exitY=1;exitDx=0;exitDy=0;entryX=0.5;entryY=0;entryDx=0;entryDy=0;" parent="1" source="0rEUQk80sUEZ4fooKw1v-1" target="0rEUQk80sUEZ4fooKw1v-2" edge="1">
          <mxGeometry relative="1" as="geometry" />
        </mxCell>
        <mxCell id="0rEUQk80sUEZ4fooKw1v-4" value="&lt;font style=&quot;font-size: 17px;&quot;&gt;定期调用&lt;/font&gt;" style="edgeLabel;html=1;align=center;verticalAlign=middle;resizable=0;points=[];" parent="0rEUQk80sUEZ4fooKw1v-3" vertex="1" connectable="0">
          <mxGeometry x="-0.24" relative="1" as="geometry">
            <mxPoint as="offset" />
          </mxGeometry>
        </mxCell>
        <mxCell id="0rEUQk80sUEZ4fooKw1v-1" value="&lt;div style=&quot;font-family: Consolas, &amp;quot;Courier New&amp;quot;, monospace; font-size: 14px; line-height: 19px;&quot;&gt;UsbHubInit&lt;/div&gt;" style="rounded=0;whiteSpace=wrap;html=1;labelBackgroundColor=none;fillColor=#d5e8d4;strokeColor=#82b366;" parent="1" vertex="1">
          <mxGeometry x="-1482.5" y="170" width="120" height="60" as="geometry" />
        </mxCell>
        <mxCell id="0rEUQk80sUEZ4fooKw1v-6" style="edgeStyle=orthogonalEdgeStyle;rounded=0;orthogonalLoop=1;jettySize=auto;html=1;exitX=0.5;exitY=1;exitDx=0;exitDy=0;entryX=0.5;entryY=0;entryDx=0;entryDy=0;" parent="1" source="0rEUQk80sUEZ4fooKw1v-2" target="0rEUQk80sUEZ4fooKw1v-5" edge="1">
          <mxGeometry relative="1" as="geometry" />
        </mxCell>
        <mxCell id="0rEUQk80sUEZ4fooKw1v-2" value="&lt;div style=&quot;font-family: Consolas, &amp;quot;Courier New&amp;quot;, monospace; font-size: 14px; line-height: 19px;&quot;&gt;UsbOnHubInterrupt&lt;/div&gt;" style="rounded=0;whiteSpace=wrap;html=1;labelBackgroundColor=none;fillColor=#dae8fc;strokeColor=#6c8ebf;" parent="1" vertex="1">
          <mxGeometry x="-1497.5" y="290" width="150" height="60" as="geometry" />
        </mxCell>
        <mxCell id="0rEUQk80sUEZ4fooKw1v-9" style="edgeStyle=orthogonalEdgeStyle;rounded=0;orthogonalLoop=1;jettySize=auto;html=1;exitX=0.5;exitY=1;exitDx=0;exitDy=0;entryX=0.5;entryY=0;entryDx=0;entryDy=0;" parent="1" source="0rEUQk80sUEZ4fooKw1v-5" target="0rEUQk80sUEZ4fooKw1v-8" edge="1">
          <mxGeometry relative="1" as="geometry" />
        </mxCell>
        <mxCell id="0rEUQk80sUEZ4fooKw1v-10" value="&lt;font style=&quot;font-size: 15px;&quot;&gt;检测到ChangeMap有变更&lt;/font&gt;" style="edgeLabel;html=1;align=center;verticalAlign=middle;resizable=0;points=[];" parent="0rEUQk80sUEZ4fooKw1v-9" vertex="1" connectable="0">
          <mxGeometry x="-0.3294" y="-2" relative="1" as="geometry">
            <mxPoint as="offset" />
          </mxGeometry>
        </mxCell>
        <mxCell id="0rEUQk80sUEZ4fooKw1v-5" value="&lt;div style=&quot;font-family: Consolas, &amp;quot;Courier New&amp;quot;, monospace; font-size: 14px; line-height: 19px;&quot;&gt;UsbHubEnumeration&lt;/div&gt;" style="rounded=0;whiteSpace=wrap;html=1;labelBackgroundColor=none;fillColor=#dae8fc;strokeColor=#6c8ebf;" parent="1" vertex="1">
          <mxGeometry x="-1507.5" y="410" width="170" height="60" as="geometry" />
        </mxCell>
        <mxCell id="0rEUQk80sUEZ4fooKw1v-19" style="edgeStyle=orthogonalEdgeStyle;rounded=0;orthogonalLoop=1;jettySize=auto;html=1;exitX=1;exitY=0.5;exitDx=0;exitDy=0;entryX=0;entryY=0.5;entryDx=0;entryDy=0;" parent="1" source="0rEUQk80sUEZ4fooKw1v-8" target="0rEUQk80sUEZ4fooKw1v-11" edge="1">
          <mxGeometry relative="1" as="geometry" />
        </mxCell>
        <mxCell id="0rEUQk80sUEZ4fooKw1v-23" style="edgeStyle=orthogonalEdgeStyle;rounded=0;orthogonalLoop=1;jettySize=auto;html=1;exitX=1;exitY=0.5;exitDx=0;exitDy=0;entryX=-0.001;entryY=0.549;entryDx=0;entryDy=0;entryPerimeter=0;" parent="1" source="0rEUQk80sUEZ4fooKw1v-8" target="0rEUQk80sUEZ4fooKw1v-22" edge="1">
          <mxGeometry relative="1" as="geometry" />
        </mxCell>
        <mxCell id="0rEUQk80sUEZ4fooKw1v-25" style="edgeStyle=orthogonalEdgeStyle;rounded=0;orthogonalLoop=1;jettySize=auto;html=1;exitX=1;exitY=0.5;exitDx=0;exitDy=0;entryX=0;entryY=0.382;entryDx=0;entryDy=0;entryPerimeter=0;" parent="1" source="0rEUQk80sUEZ4fooKw1v-8" target="0rEUQk80sUEZ4fooKw1v-24" edge="1">
          <mxGeometry relative="1" as="geometry" />
        </mxCell>
        <mxCell id="0rEUQk80sUEZ4fooKw1v-27" style="edgeStyle=orthogonalEdgeStyle;rounded=0;orthogonalLoop=1;jettySize=auto;html=1;exitX=1;exitY=0.5;exitDx=0;exitDy=0;entryX=0.001;entryY=0.577;entryDx=0;entryDy=0;entryPerimeter=0;" parent="1" source="0rEUQk80sUEZ4fooKw1v-8" target="0rEUQk80sUEZ4fooKw1v-26" edge="1">
          <mxGeometry relative="1" as="geometry" />
        </mxCell>
        <mxCell id="0rEUQk80sUEZ4fooKw1v-89" style="edgeStyle=orthogonalEdgeStyle;rounded=0;orthogonalLoop=1;jettySize=auto;html=1;exitX=1;exitY=0.5;exitDx=0;exitDy=0;entryX=0;entryY=0.5;entryDx=0;entryDy=0;" parent="1" source="0rEUQk80sUEZ4fooKw1v-8" target="0rEUQk80sUEZ4fooKw1v-28" edge="1">
          <mxGeometry relative="1" as="geometry" />
        </mxCell>
        <mxCell id="0rEUQk80sUEZ4fooKw1v-97" style="edgeStyle=orthogonalEdgeStyle;rounded=0;orthogonalLoop=1;jettySize=auto;html=1;exitX=1;exitY=0.5;exitDx=0;exitDy=0;entryX=0;entryY=0.5;entryDx=0;entryDy=0;" parent="1" source="0rEUQk80sUEZ4fooKw1v-8" target="0rEUQk80sUEZ4fooKw1v-96" edge="1">
          <mxGeometry relative="1" as="geometry" />
        </mxCell>
        <mxCell id="0rEUQk80sUEZ4fooKw1v-8" value="&lt;div style=&quot;font-family: Consolas, &amp;quot;Courier New&amp;quot;, monospace; font-size: 14px; line-height: 19px;&quot;&gt;UsbEnumeratePort&lt;/div&gt;" style="rounded=0;whiteSpace=wrap;html=1;labelBackgroundColor=none;fillColor=#dae8fc;strokeColor=#6c8ebf;" parent="1" vertex="1">
          <mxGeometry x="-1510" y="560" width="175" height="40" as="geometry" />
        </mxCell>
        <mxCell id="0rEUQk80sUEZ4fooKw1v-11" value="&lt;div style=&quot;font-family: Consolas, &amp;quot;Courier New&amp;quot;, monospace; font-size: 14px; line-height: 19px;&quot;&gt;&lt;div style=&quot;line-height: 19px;&quot;&gt;HubApi&lt;span style=&quot;&quot;&gt;-&amp;gt;&lt;/span&gt;GetPortStatus &lt;span style=&quot;&quot;&gt;(&lt;/span&gt;&lt;span style=&quot;&quot;&gt;HubIf&lt;/span&gt;&lt;span style=&quot;&quot;&gt;,&lt;/span&gt; &lt;span style=&quot;&quot;&gt;Port&lt;/span&gt;&lt;span style=&quot;&quot;&gt;,&lt;/span&gt; &lt;span style=&quot;&quot;&gt;&amp;amp;&lt;/span&gt;&lt;span style=&quot;&quot;&gt;PortState&lt;/span&gt;&lt;span style=&quot;&quot;&gt;)&lt;/span&gt;&lt;/div&gt;&lt;/div&gt;" style="rounded=0;whiteSpace=wrap;html=1;labelBackgroundColor=none;fillColor=#dae8fc;strokeColor=#6c8ebf;" parent="1" vertex="1">
          <mxGeometry x="-1060" y="280" width="380" height="40" as="geometry" />
        </mxCell>
        <mxCell id="0rEUQk80sUEZ4fooKw1v-22" value="&lt;div style=&quot;color: rgb(218, 218, 218); background-color: rgb(30, 30, 30); font-family: Consolas, &amp;quot;Courier New&amp;quot;, monospace; font-size: 14px; line-height: 19px;&quot;&gt;&quot;&lt;span style=&quot;color: #ce9178;&quot;&gt;UsbEnumeratePort: port &lt;/span&gt;&lt;span style=&quot;color: #9cdcfe;&quot;&gt;%d&lt;/span&gt;&lt;span style=&quot;color: #ce9178;&quot;&gt; state - &lt;/span&gt;&lt;span style=&quot;color: #9cdcfe;&quot;&gt;%02x&lt;/span&gt;&lt;span style=&quot;color: #ce9178;&quot;&gt;, change - &lt;/span&gt;&lt;span style=&quot;color: #9cdcfe;&quot;&gt;%02x&lt;/span&gt;&lt;span style=&quot;color: #ce9178;&quot;&gt; on &lt;/span&gt;&lt;span style=&quot;color: #9cdcfe;&quot;&gt;%p&lt;/span&gt;&lt;span style=&quot;color: #ffd68f;&quot;&gt;\n&lt;/span&gt;&lt;span style=&quot;color: #e8c9bb;&quot;&gt;&quot;&lt;/span&gt;&lt;/div&gt;" style="text;html=1;align=center;verticalAlign=middle;resizable=0;points=[];autosize=1;strokeColor=none;fillColor=none;" parent="1" vertex="1">
          <mxGeometry x="-1060" y="335" width="510" height="30" as="geometry" />
        </mxCell>
        <mxCell id="0rEUQk80sUEZ4fooKw1v-24" value="&lt;div style=&quot;color: rgb(218, 218, 218); background-color: rgb(30, 30, 30); font-family: Consolas, &amp;quot;Courier New&amp;quot;, monospace; font-size: 14px; line-height: 19px;&quot;&gt;&quot;&lt;span style=&quot;color: #ce9178;&quot;&gt;UsbEnumeratePort: Device Connect/Disconnect Normally (port &lt;/span&gt;&lt;span style=&quot;color: #9cdcfe;&quot;&gt;%d&lt;/span&gt;&lt;span style=&quot;color: #ce9178;&quot;&gt;)&lt;/span&gt;&lt;span style=&quot;color: #ffd68f;&quot;&gt;\n&lt;/span&gt;&lt;span style=&quot;color: #e8c9bb;&quot;&gt;&quot;&lt;/span&gt;&lt;/div&gt;" style="text;html=1;align=center;verticalAlign=middle;resizable=0;points=[];autosize=1;strokeColor=none;fillColor=none;" parent="1" vertex="1">
          <mxGeometry x="-1060" y="380" width="530" height="30" as="geometry" />
        </mxCell>
        <mxCell id="0rEUQk80sUEZ4fooKw1v-26" value="&lt;div style=&quot;color: rgb(218, 218, 218); background-color: rgb(30, 30, 30); font-family: Consolas, &amp;quot;Courier New&amp;quot;, monospace; font-size: 14px; line-height: 19px;&quot;&gt;&quot;&lt;span style=&quot;color: #ce9178;&quot;&gt;UsbEnumeratePort: new device connected at port &lt;/span&gt;&lt;span style=&quot;color: #9cdcfe;&quot;&gt;%d&lt;/span&gt;&lt;span style=&quot;color: #ffd68f;&quot;&gt;\n&lt;/span&gt;&lt;span style=&quot;color: #e8c9bb;&quot;&gt;&quot;&lt;/span&gt;&lt;/div&gt;" style="text;html=1;align=center;verticalAlign=middle;resizable=0;points=[];autosize=1;strokeColor=none;fillColor=none;" parent="1" vertex="1">
          <mxGeometry x="-1060" y="430" width="430" height="30" as="geometry" />
        </mxCell>
        <mxCell id="0rEUQk80sUEZ4fooKw1v-34" style="edgeStyle=orthogonalEdgeStyle;rounded=0;orthogonalLoop=1;jettySize=auto;html=1;exitX=1;exitY=0.5;exitDx=0;exitDy=0;entryX=0;entryY=0.5;entryDx=0;entryDy=0;" parent="1" source="0rEUQk80sUEZ4fooKw1v-28" target="0rEUQk80sUEZ4fooKw1v-32" edge="1">
          <mxGeometry relative="1" as="geometry" />
        </mxCell>
        <mxCell id="0rEUQk80sUEZ4fooKw1v-36" style="edgeStyle=orthogonalEdgeStyle;rounded=0;orthogonalLoop=1;jettySize=auto;html=1;exitX=1;exitY=0.5;exitDx=0;exitDy=0;entryX=0.001;entryY=0.505;entryDx=0;entryDy=0;entryPerimeter=0;" parent="1" source="0rEUQk80sUEZ4fooKw1v-28" target="0rEUQk80sUEZ4fooKw1v-35" edge="1">
          <mxGeometry relative="1" as="geometry" />
        </mxCell>
        <mxCell id="0rEUQk80sUEZ4fooKw1v-38" style="edgeStyle=orthogonalEdgeStyle;rounded=0;orthogonalLoop=1;jettySize=auto;html=1;exitX=1;exitY=0.5;exitDx=0;exitDy=0;entryX=0;entryY=0.5;entryDx=0;entryDy=0;" parent="1" source="0rEUQk80sUEZ4fooKw1v-28" target="0rEUQk80sUEZ4fooKw1v-37" edge="1">
          <mxGeometry relative="1" as="geometry" />
        </mxCell>
        <mxCell id="0rEUQk80sUEZ4fooKw1v-41" style="edgeStyle=orthogonalEdgeStyle;rounded=0;orthogonalLoop=1;jettySize=auto;html=1;exitX=1;exitY=0.5;exitDx=0;exitDy=0;entryX=0;entryY=0.5;entryDx=0;entryDy=0;" parent="1" source="0rEUQk80sUEZ4fooKw1v-28" target="0rEUQk80sUEZ4fooKw1v-39" edge="1">
          <mxGeometry relative="1" as="geometry" />
        </mxCell>
        <mxCell id="0rEUQk80sUEZ4fooKw1v-44" style="edgeStyle=orthogonalEdgeStyle;rounded=0;orthogonalLoop=1;jettySize=auto;html=1;exitX=1;exitY=0.5;exitDx=0;exitDy=0;entryX=-0.001;entryY=0.574;entryDx=0;entryDy=0;entryPerimeter=0;" parent="1" source="0rEUQk80sUEZ4fooKw1v-28" target="0rEUQk80sUEZ4fooKw1v-42" edge="1">
          <mxGeometry relative="1" as="geometry" />
        </mxCell>
        <mxCell id="0rEUQk80sUEZ4fooKw1v-46" style="edgeStyle=orthogonalEdgeStyle;rounded=0;orthogonalLoop=1;jettySize=auto;html=1;exitX=1;exitY=0.5;exitDx=0;exitDy=0;entryX=0.001;entryY=0.593;entryDx=0;entryDy=0;entryPerimeter=0;" parent="1" source="0rEUQk80sUEZ4fooKw1v-28" target="0rEUQk80sUEZ4fooKw1v-45" edge="1">
          <mxGeometry relative="1" as="geometry" />
        </mxCell>
        <mxCell id="0rEUQk80sUEZ4fooKw1v-48" style="edgeStyle=orthogonalEdgeStyle;rounded=0;orthogonalLoop=1;jettySize=auto;html=1;exitX=1;exitY=0.5;exitDx=0;exitDy=0;entryX=0;entryY=0.548;entryDx=0;entryDy=0;entryPerimeter=0;" parent="1" source="0rEUQk80sUEZ4fooKw1v-28" target="0rEUQk80sUEZ4fooKw1v-47" edge="1">
          <mxGeometry relative="1" as="geometry" />
        </mxCell>
        <mxCell id="0rEUQk80sUEZ4fooKw1v-50" style="edgeStyle=orthogonalEdgeStyle;rounded=0;orthogonalLoop=1;jettySize=auto;html=1;exitX=1;exitY=0.5;exitDx=0;exitDy=0;entryX=0;entryY=0.5;entryDx=0;entryDy=0;" parent="1" source="0rEUQk80sUEZ4fooKw1v-28" target="0rEUQk80sUEZ4fooKw1v-49" edge="1">
          <mxGeometry relative="1" as="geometry" />
        </mxCell>
        <mxCell id="0rEUQk80sUEZ4fooKw1v-57" style="edgeStyle=orthogonalEdgeStyle;rounded=0;orthogonalLoop=1;jettySize=auto;html=1;exitX=1;exitY=0.5;exitDx=0;exitDy=0;entryX=0;entryY=0.5;entryDx=0;entryDy=0;" parent="1" source="0rEUQk80sUEZ4fooKw1v-28" target="0rEUQk80sUEZ4fooKw1v-55" edge="1">
          <mxGeometry relative="1" as="geometry" />
        </mxCell>
        <mxCell id="0rEUQk80sUEZ4fooKw1v-64" style="edgeStyle=orthogonalEdgeStyle;rounded=0;orthogonalLoop=1;jettySize=auto;html=1;exitX=1;exitY=0.5;exitDx=0;exitDy=0;entryX=0;entryY=0.5;entryDx=0;entryDy=0;" parent="1" source="0rEUQk80sUEZ4fooKw1v-28" target="0rEUQk80sUEZ4fooKw1v-61" edge="1">
          <mxGeometry relative="1" as="geometry" />
        </mxCell>
        <mxCell id="0rEUQk80sUEZ4fooKw1v-66" style="edgeStyle=orthogonalEdgeStyle;rounded=0;orthogonalLoop=1;jettySize=auto;html=1;exitX=1;exitY=0.5;exitDx=0;exitDy=0;entryX=0;entryY=0.5;entryDx=0;entryDy=0;" parent="1" source="0rEUQk80sUEZ4fooKw1v-28" target="0rEUQk80sUEZ4fooKw1v-65" edge="1">
          <mxGeometry relative="1" as="geometry" />
        </mxCell>
        <mxCell id="0rEUQk80sUEZ4fooKw1v-73" style="edgeStyle=orthogonalEdgeStyle;rounded=0;orthogonalLoop=1;jettySize=auto;html=1;exitX=1;exitY=0.5;exitDx=0;exitDy=0;entryX=0;entryY=0.5;entryDx=0;entryDy=0;" parent="1" source="0rEUQk80sUEZ4fooKw1v-28" target="0rEUQk80sUEZ4fooKw1v-72" edge="1">
          <mxGeometry relative="1" as="geometry" />
        </mxCell>
        <mxCell id="0rEUQk80sUEZ4fooKw1v-81" style="edgeStyle=orthogonalEdgeStyle;rounded=0;orthogonalLoop=1;jettySize=auto;html=1;exitX=1;exitY=0.5;exitDx=0;exitDy=0;entryX=0;entryY=0.5;entryDx=0;entryDy=0;" parent="1" source="0rEUQk80sUEZ4fooKw1v-28" target="0rEUQk80sUEZ4fooKw1v-77" edge="1">
          <mxGeometry relative="1" as="geometry" />
        </mxCell>
        <mxCell id="0rEUQk80sUEZ4fooKw1v-83" style="edgeStyle=orthogonalEdgeStyle;rounded=0;orthogonalLoop=1;jettySize=auto;html=1;exitX=1;exitY=0.5;exitDx=0;exitDy=0;entryX=0;entryY=0.5;entryDx=0;entryDy=0;" parent="1" source="0rEUQk80sUEZ4fooKw1v-28" target="0rEUQk80sUEZ4fooKw1v-82" edge="1">
          <mxGeometry relative="1" as="geometry" />
        </mxCell>
        <mxCell id="0rEUQk80sUEZ4fooKw1v-28" value="&lt;div style=&quot;font-family: Consolas, &amp;quot;Courier New&amp;quot;, monospace; font-size: 14px; line-height: 19px;&quot;&gt;&lt;div style=&quot;line-height: 19px;&quot;&gt;UsbEnumerateNewDev &lt;span style=&quot;&quot;&gt;(&lt;/span&gt;&lt;span style=&quot;&quot;&gt;HubIf&lt;/span&gt;&lt;span style=&quot;&quot;&gt;,&lt;/span&gt; &lt;span style=&quot;&quot;&gt;Port&lt;/span&gt;&lt;span style=&quot;&quot;&gt;,&lt;/span&gt; &lt;span style=&quot;&quot;&gt;TRUE&lt;/span&gt;&lt;span style=&quot;&quot;&gt;)&lt;/span&gt;&lt;/div&gt;&lt;/div&gt;" style="rounded=0;whiteSpace=wrap;html=1;labelBackgroundColor=none;fillColor=#dae8fc;strokeColor=#6c8ebf;" parent="1" vertex="1">
          <mxGeometry x="-1060" y="520" width="300" height="40" as="geometry" />
        </mxCell>
        <mxCell id="QX1UlTcq-nTEOAcM45bA-2" style="edgeStyle=orthogonalEdgeStyle;rounded=0;orthogonalLoop=1;jettySize=auto;html=1;exitX=1;exitY=0.5;exitDx=0;exitDy=0;entryX=0;entryY=0.5;entryDx=0;entryDy=0;" parent="1" source="0rEUQk80sUEZ4fooKw1v-32" target="QX1UlTcq-nTEOAcM45bA-1" edge="1">
          <mxGeometry relative="1" as="geometry" />
        </mxCell>
        <mxCell id="QX1UlTcq-nTEOAcM45bA-4" style="edgeStyle=orthogonalEdgeStyle;rounded=0;orthogonalLoop=1;jettySize=auto;html=1;exitX=1;exitY=0.5;exitDx=0;exitDy=0;entryX=0;entryY=0.5;entryDx=0;entryDy=0;" parent="1" source="0rEUQk80sUEZ4fooKw1v-32" target="QX1UlTcq-nTEOAcM45bA-3" edge="1">
          <mxGeometry relative="1" as="geometry" />
        </mxCell>
        <mxCell id="0rEUQk80sUEZ4fooKw1v-32" value="&lt;div style=&quot;font-family: Consolas, &amp;quot;Courier New&amp;quot;, monospace; font-size: 14px; line-height: 19px;&quot;&gt;&lt;div style=&quot;line-height: 19px;&quot;&gt;HubApi&lt;span style=&quot;&quot;&gt;-&amp;gt;&lt;/span&gt;ResetPort &lt;span style=&quot;&quot;&gt;(&lt;/span&gt;&lt;span style=&quot;&quot;&gt;HubIf&lt;/span&gt;&lt;span style=&quot;&quot;&gt;,&lt;/span&gt; &lt;span style=&quot;&quot;&gt;Port&lt;/span&gt;&lt;span style=&quot;&quot;&gt;)&lt;/span&gt;&lt;/div&gt;&lt;/div&gt;" style="rounded=0;whiteSpace=wrap;html=1;fillColor=#e51400;fontColor=#ffffff;strokeColor=#B20000;labelBackgroundColor=none;" parent="1" vertex="1">
          <mxGeometry x="-500" y="490" width="260" height="40" as="geometry" />
        </mxCell>
        <mxCell id="0rEUQk80sUEZ4fooKw1v-35" value="&lt;div style=&quot;color: rgb(218, 218, 218); background-color: rgb(30, 30, 30); font-family: Consolas, &amp;quot;Courier New&amp;quot;, monospace; font-size: 14px; line-height: 19px;&quot;&gt;&quot;&lt;span style=&quot;color: #ce9178;&quot;&gt;UsbEnumerateNewDev: hub port &lt;/span&gt;&lt;span style=&quot;color: #9cdcfe;&quot;&gt;%d&lt;/span&gt;&lt;span style=&quot;color: #ce9178;&quot;&gt; is reset&lt;/span&gt;&lt;span style=&quot;color: #ffd68f;&quot;&gt;\n&lt;/span&gt;&lt;span style=&quot;color: #e8c9bb;&quot;&gt;&quot;&lt;/span&gt;&lt;/div&gt;" style="text;html=1;align=center;verticalAlign=middle;resizable=0;points=[];autosize=1;strokeColor=none;fillColor=none;" parent="1" vertex="1">
          <mxGeometry x="-500" y="600" width="360" height="30" as="geometry" />
        </mxCell>
        <mxCell id="0rEUQk80sUEZ4fooKw1v-37" value="&lt;div style=&quot;font-family: Consolas, &amp;quot;Courier New&amp;quot;, monospace; font-size: 14px; line-height: 19px;&quot;&gt;&lt;div style=&quot;line-height: 19px;&quot;&gt;Child &lt;span style=&quot;&quot;&gt;=&lt;/span&gt; &lt;span style=&quot;&quot;&gt;UsbCreateDevice&lt;/span&gt; &lt;span style=&quot;&quot;&gt;(&lt;/span&gt;&lt;span style=&quot;&quot;&gt;HubIf&lt;/span&gt;&lt;span style=&quot;&quot;&gt;,&lt;/span&gt; &lt;span style=&quot;&quot;&gt;Port&lt;/span&gt;&lt;span style=&quot;&quot;&gt;)&lt;/span&gt;&lt;/div&gt;&lt;/div&gt;" style="rounded=0;whiteSpace=wrap;html=1;labelBackgroundColor=none;fillColor=#dae8fc;strokeColor=#6c8ebf;" parent="1" vertex="1">
          <mxGeometry x="-500" y="650" width="300" height="40" as="geometry" />
        </mxCell>
        <mxCell id="kIxeN6XrM4gD7OjRy0_J-2" style="edgeStyle=orthogonalEdgeStyle;rounded=0;orthogonalLoop=1;jettySize=auto;html=1;exitX=1;exitY=0.5;exitDx=0;exitDy=0;entryX=0;entryY=0.5;entryDx=0;entryDy=0;" parent="1" source="0rEUQk80sUEZ4fooKw1v-39" target="kIxeN6XrM4gD7OjRy0_J-1" edge="1">
          <mxGeometry relative="1" as="geometry" />
        </mxCell>
        <mxCell id="kIxeN6XrM4gD7OjRy0_J-5" value="ERROR" style="edgeLabel;html=1;align=center;verticalAlign=middle;resizable=0;points=[];" parent="kIxeN6XrM4gD7OjRy0_J-2" vertex="1" connectable="0">
          <mxGeometry x="0.1067" relative="1" as="geometry">
            <mxPoint as="offset" />
          </mxGeometry>
        </mxCell>
        <mxCell id="kIxeN6XrM4gD7OjRy0_J-4" style="edgeStyle=orthogonalEdgeStyle;rounded=0;orthogonalLoop=1;jettySize=auto;html=1;exitX=1;exitY=0.5;exitDx=0;exitDy=0;entryX=0;entryY=0.5;entryDx=0;entryDy=0;" parent="1" source="0rEUQk80sUEZ4fooKw1v-39" target="kIxeN6XrM4gD7OjRy0_J-3" edge="1">
          <mxGeometry relative="1" as="geometry" />
        </mxCell>
        <mxCell id="kIxeN6XrM4gD7OjRy0_J-6" value="CCS=0" style="edgeLabel;html=1;align=center;verticalAlign=middle;resizable=0;points=[];" parent="kIxeN6XrM4gD7OjRy0_J-4" vertex="1" connectable="0">
          <mxGeometry x="0.0959" y="1" relative="1" as="geometry">
            <mxPoint as="offset" />
          </mxGeometry>
        </mxCell>
        <mxCell id="0rEUQk80sUEZ4fooKw1v-39" value="&lt;div style=&quot;font-family: Consolas, &amp;quot;Courier New&amp;quot;, monospace; font-size: 14px; line-height: 19px;&quot;&gt;&lt;div style=&quot;line-height: 19px;&quot;&gt;HubApi&lt;span style=&quot;&quot;&gt;-&amp;gt;&lt;/span&gt;GetPortStatus &lt;span style=&quot;&quot;&gt;(&lt;/span&gt;&lt;span style=&quot;&quot;&gt;HubIf&lt;/span&gt;&lt;span style=&quot;&quot;&gt;,&lt;/span&gt; &lt;span style=&quot;&quot;&gt;Port&lt;/span&gt;&lt;span style=&quot;&quot;&gt;,&lt;/span&gt; &lt;span style=&quot;&quot;&gt;&amp;amp;&lt;/span&gt;&lt;span style=&quot;&quot;&gt;PortState&lt;/span&gt;&lt;span style=&quot;&quot;&gt;)&lt;/span&gt;&lt;/div&gt;&lt;/div&gt;" style="rounded=0;whiteSpace=wrap;html=1;labelBackgroundColor=none;fillColor=#dae8fc;strokeColor=#6c8ebf;" parent="1" vertex="1">
          <mxGeometry x="-500" y="730" width="380" height="40" as="geometry" />
        </mxCell>
        <mxCell id="0rEUQk80sUEZ4fooKw1v-42" value="&lt;div style=&quot;color: rgb(218, 218, 218); background-color: rgb(30, 30, 30); font-family: Consolas, &amp;quot;Courier New&amp;quot;, monospace; font-size: 14px; line-height: 19px;&quot;&gt;&quot;&lt;span style=&quot;color: #ce9178;&quot;&gt;UsbEnumerateNewDev: device is of &lt;/span&gt;&lt;span style=&quot;color: #9cdcfe;&quot;&gt;%d&lt;/span&gt;&lt;span style=&quot;color: #ce9178;&quot;&gt; speed&lt;/span&gt;&lt;span style=&quot;color: #ffd68f;&quot;&gt;\n&lt;/span&gt;&lt;span style=&quot;color: #e8c9bb;&quot;&gt;&quot;&lt;/span&gt;&lt;/div&gt;" style="text;html=1;align=center;verticalAlign=middle;resizable=0;points=[];autosize=1;strokeColor=none;fillColor=none;" parent="1" vertex="1">
          <mxGeometry x="-500" y="820" width="370" height="30" as="geometry" />
        </mxCell>
        <mxCell id="0rEUQk80sUEZ4fooKw1v-45" value="&lt;div style=&quot;color: rgb(218, 218, 218); background-color: rgb(30, 30, 30); font-family: Consolas, &amp;quot;Courier New&amp;quot;, monospace; font-size: 14px; line-height: 19px;&quot;&gt;&quot;&lt;span style=&quot;color: #ce9178;&quot;&gt;UsbEnumerateNewDev: device uses translator (&lt;/span&gt;&lt;span style=&quot;color: #9cdcfe;&quot;&gt;%d&lt;/span&gt;&lt;span style=&quot;color: #ce9178;&quot;&gt;, &lt;/span&gt;&lt;span style=&quot;color: #9cdcfe;&quot;&gt;%d&lt;/span&gt;&lt;span style=&quot;color: #ce9178;&quot;&gt;)&lt;/span&gt;&lt;span style=&quot;color: #ffd68f;&quot;&gt;\n&lt;/span&gt;&lt;span style=&quot;color: #e8c9bb;&quot;&gt;&quot;&lt;/span&gt;&lt;/div&gt;" style="text;html=1;align=center;verticalAlign=middle;resizable=0;points=[];autosize=1;strokeColor=none;fillColor=none;" parent="1" vertex="1">
          <mxGeometry x="-500" y="890" width="450" height="30" as="geometry" />
        </mxCell>
        <mxCell id="0rEUQk80sUEZ4fooKw1v-47" value="&lt;div style=&quot;color: rgb(218, 218, 218); background-color: rgb(30, 30, 30); font-family: Consolas, &amp;quot;Courier New&amp;quot;, monospace; font-size: 14px; line-height: 19px;&quot;&gt;&quot;&lt;span style=&quot;color: #ce9178;&quot;&gt;UsbEnumerateNewDev: device is now ADDRESSED at &lt;/span&gt;&lt;span style=&quot;color: #9cdcfe;&quot;&gt;%d&lt;/span&gt;&lt;span style=&quot;color: #ffd68f;&quot;&gt;\n&lt;/span&gt;&lt;span style=&quot;color: #e8c9bb;&quot;&gt;&quot;&lt;/span&gt;&lt;/div&gt;" style="text;html=1;align=center;verticalAlign=middle;resizable=0;points=[];autosize=1;strokeColor=none;fillColor=none;" parent="1" vertex="1">
          <mxGeometry x="-500" y="1020" width="430" height="30" as="geometry" />
        </mxCell>
        <mxCell id="0rEUQk80sUEZ4fooKw1v-52" style="edgeStyle=orthogonalEdgeStyle;rounded=0;orthogonalLoop=1;jettySize=auto;html=1;exitX=1;exitY=0.5;exitDx=0;exitDy=0;entryX=0;entryY=0.5;entryDx=0;entryDy=0;" parent="1" source="0rEUQk80sUEZ4fooKw1v-49" target="0rEUQk80sUEZ4fooKw1v-51" edge="1">
          <mxGeometry relative="1" as="geometry">
            <Array as="points">
              <mxPoint x="-160" y="975" />
              <mxPoint x="-160" y="975" />
            </Array>
          </mxGeometry>
        </mxCell>
        <mxCell id="0rEUQk80sUEZ4fooKw1v-53" value="&lt;font style=&quot;font-size: 15px;&quot;&gt;ERROR&lt;/font&gt;" style="edgeLabel;html=1;align=center;verticalAlign=middle;resizable=0;points=[];" parent="0rEUQk80sUEZ4fooKw1v-52" vertex="1" connectable="0">
          <mxGeometry x="-0.3896" relative="1" as="geometry">
            <mxPoint x="18" as="offset" />
          </mxGeometry>
        </mxCell>
        <mxCell id="0rEUQk80sUEZ4fooKw1v-49" value="&lt;div style=&quot;font-family: Consolas, &amp;quot;Courier New&amp;quot;, monospace; font-size: 14px; line-height: 19px;&quot;&gt;UsbSetAddress &lt;span style=&quot;&quot;&gt;(&lt;/span&gt;&lt;span style=&quot;&quot;&gt;Child&lt;/span&gt;&lt;span style=&quot;&quot;&gt;,&lt;/span&gt; &lt;span style=&quot;&quot;&gt;(&lt;/span&gt;&lt;span style=&quot;&quot;&gt;UINT8&lt;/span&gt;&lt;span style=&quot;&quot;&gt;)&lt;/span&gt;&lt;span style=&quot;&quot;&gt;Address&lt;/span&gt;&lt;span style=&quot;&quot;&gt;)&lt;/span&gt;&lt;/div&gt;" style="rounded=0;whiteSpace=wrap;html=1;labelBackgroundColor=none;fillColor=#dae8fc;strokeColor=#6c8ebf;" parent="1" vertex="1">
          <mxGeometry x="-500" y="960" width="290" height="30" as="geometry" />
        </mxCell>
        <mxCell id="0rEUQk80sUEZ4fooKw1v-51" value="&lt;div style=&quot;color: rgb(218, 218, 218); background-color: rgb(30, 30, 30); font-family: Consolas, &amp;quot;Courier New&amp;quot;, monospace; font-weight: normal; font-size: 14px; line-height: 19px;&quot;&gt;&lt;div&gt;&lt;span style=&quot;color: #e8c9bb;&quot;&gt;&quot;&lt;/span&gt;&lt;span style=&quot;color: #ce9178;&quot;&gt;UsbEnumerateNewDev: failed to set device address - &lt;/span&gt;&lt;span style=&quot;color: #f44747;&quot;&gt;%&lt;/span&gt;&lt;span style=&quot;color: #ce9178;&quot;&gt;r&lt;/span&gt;&lt;span style=&quot;color: #ffd68f;&quot;&gt;\n&lt;/span&gt;&lt;span style=&quot;color: #e8c9bb;&quot;&gt;&quot;&lt;/span&gt;&lt;/div&gt;&lt;/div&gt;" style="text;whiteSpace=wrap;html=1;" parent="1" vertex="1">
          <mxGeometry x="-60" y="955" width="470" height="40" as="geometry" />
        </mxCell>
        <mxCell id="0rEUQk80sUEZ4fooKw1v-59" style="edgeStyle=orthogonalEdgeStyle;rounded=0;orthogonalLoop=1;jettySize=auto;html=1;exitX=1;exitY=0.5;exitDx=0;exitDy=0;entryX=0;entryY=0.5;entryDx=0;entryDy=0;" parent="1" source="0rEUQk80sUEZ4fooKw1v-55" target="0rEUQk80sUEZ4fooKw1v-58" edge="1">
          <mxGeometry relative="1" as="geometry" />
        </mxCell>
        <mxCell id="0rEUQk80sUEZ4fooKw1v-60" value="&lt;font style=&quot;font-size: 15px;&quot;&gt;ERROR&lt;/font&gt;" style="edgeLabel;html=1;align=center;verticalAlign=middle;resizable=0;points=[];" parent="0rEUQk80sUEZ4fooKw1v-59" vertex="1" connectable="0">
          <mxGeometry x="-0.219" y="-1" relative="1" as="geometry">
            <mxPoint as="offset" />
          </mxGeometry>
        </mxCell>
        <mxCell id="0rEUQk80sUEZ4fooKw1v-55" value="&lt;div style=&quot;font-family: Consolas, &amp;quot;Courier New&amp;quot;, monospace; font-size: 14px; line-height: 19px;&quot;&gt;UsbGetMaxPacketSize0 &lt;span style=&quot;&quot;&gt;(&lt;/span&gt;&lt;span style=&quot;&quot;&gt;Child&lt;/span&gt;&lt;span style=&quot;&quot;&gt;)&lt;br&gt;Get_Descrpitor&lt;/span&gt;&lt;/div&gt;" style="rounded=0;whiteSpace=wrap;html=1;labelBackgroundColor=none;fillColor=#dae8fc;strokeColor=#6c8ebf;" parent="1" vertex="1">
          <mxGeometry x="-500" y="1100" width="310" height="50" as="geometry" />
        </mxCell>
        <mxCell id="0rEUQk80sUEZ4fooKw1v-58" value="&lt;div style=&quot;color: rgb(218, 218, 218); background-color: rgb(30, 30, 30); font-family: Consolas, &amp;quot;Courier New&amp;quot;, monospace; font-weight: normal; font-size: 14px; line-height: 19px;&quot;&gt;&lt;div&gt;&lt;span style=&quot;color: #e8c9bb;&quot;&gt;&quot;&lt;/span&gt;&lt;span style=&quot;color: #ce9178;&quot;&gt;UsbEnumerateNewDev: failed to get max packet for EP 0 - &lt;/span&gt;&lt;span style=&quot;color: #f44747;&quot;&gt;%&lt;/span&gt;&lt;span style=&quot;color: #ce9178;&quot;&gt;r&lt;/span&gt;&lt;span style=&quot;color: #ffd68f;&quot;&gt;\n&lt;/span&gt;&lt;span style=&quot;color: #e8c9bb;&quot;&gt;&quot;&lt;/span&gt;&lt;/div&gt;&lt;/div&gt;" style="text;whiteSpace=wrap;html=1;" parent="1" vertex="1">
          <mxGeometry x="-50" y="1105" width="510" height="40" as="geometry" />
        </mxCell>
        <mxCell id="0rEUQk80sUEZ4fooKw1v-61" value="&lt;div style=&quot;color: rgb(218, 218, 218); background-color: rgb(30, 30, 30); font-family: Consolas, &amp;quot;Courier New&amp;quot;, monospace; font-weight: normal; font-size: 14px; line-height: 19px;&quot;&gt;&lt;div&gt;&lt;span style=&quot;color: #e8c9bb;&quot;&gt;&quot;&lt;/span&gt;&lt;span style=&quot;color: #ce9178;&quot;&gt;UsbEnumerateNewDev: max packet size for EP 0 is &lt;/span&gt;&lt;span style=&quot;color: #9cdcfe;&quot;&gt;%d&lt;/span&gt;&lt;span style=&quot;color: #ffd68f;&quot;&gt;\n&lt;/span&gt;&lt;span style=&quot;color: #e8c9bb;&quot;&gt;&quot;&lt;/span&gt;&lt;/div&gt;&lt;/div&gt;" style="text;whiteSpace=wrap;html=1;" parent="1" vertex="1">
          <mxGeometry x="-500" y="1180" width="450" height="40" as="geometry" />
        </mxCell>
        <mxCell id="0rEUQk80sUEZ4fooKw1v-93" style="edgeStyle=orthogonalEdgeStyle;rounded=0;orthogonalLoop=1;jettySize=auto;html=1;exitX=1;exitY=0.5;exitDx=0;exitDy=0;entryX=0;entryY=0.5;entryDx=0;entryDy=0;" parent="1" source="0rEUQk80sUEZ4fooKw1v-65" target="0rEUQk80sUEZ4fooKw1v-92" edge="1">
          <mxGeometry relative="1" as="geometry" />
        </mxCell>
        <mxCell id="0rEUQk80sUEZ4fooKw1v-95" style="edgeStyle=orthogonalEdgeStyle;rounded=0;orthogonalLoop=1;jettySize=auto;html=1;exitX=1;exitY=0.5;exitDx=0;exitDy=0;entryX=0;entryY=0.5;entryDx=0;entryDy=0;" parent="1" source="0rEUQk80sUEZ4fooKw1v-65" target="0rEUQk80sUEZ4fooKw1v-94" edge="1">
          <mxGeometry relative="1" as="geometry" />
        </mxCell>
        <mxCell id="QX1UlTcq-nTEOAcM45bA-25" style="edgeStyle=orthogonalEdgeStyle;rounded=0;orthogonalLoop=1;jettySize=auto;html=1;exitX=0.75;exitY=1;exitDx=0;exitDy=0;" parent="1" source="0rEUQk80sUEZ4fooKw1v-65" target="0rEUQk80sUEZ4fooKw1v-68" edge="1">
          <mxGeometry relative="1" as="geometry" />
        </mxCell>
        <mxCell id="QX1UlTcq-nTEOAcM45bA-26" value="ERROR" style="edgeLabel;html=1;align=center;verticalAlign=middle;resizable=0;points=[];" parent="QX1UlTcq-nTEOAcM45bA-25" vertex="1" connectable="0">
          <mxGeometry x="0.2087" y="2" relative="1" as="geometry">
            <mxPoint as="offset" />
          </mxGeometry>
        </mxCell>
        <mxCell id="QX1UlTcq-nTEOAcM45bA-29" style="edgeStyle=orthogonalEdgeStyle;rounded=0;orthogonalLoop=1;jettySize=auto;html=1;exitX=1;exitY=0.5;exitDx=0;exitDy=0;entryX=0;entryY=0.5;entryDx=0;entryDy=0;" parent="1" source="0rEUQk80sUEZ4fooKw1v-65" target="QX1UlTcq-nTEOAcM45bA-27" edge="1">
          <mxGeometry relative="1" as="geometry" />
        </mxCell>
        <mxCell id="QX1UlTcq-nTEOAcM45bA-30" style="edgeStyle=orthogonalEdgeStyle;rounded=0;orthogonalLoop=1;jettySize=auto;html=1;exitX=1;exitY=0.5;exitDx=0;exitDy=0;entryX=0;entryY=0.5;entryDx=0;entryDy=0;" parent="1" source="0rEUQk80sUEZ4fooKw1v-65" target="QX1UlTcq-nTEOAcM45bA-28" edge="1">
          <mxGeometry relative="1" as="geometry" />
        </mxCell>
        <mxCell id="QX1UlTcq-nTEOAcM45bA-32" style="edgeStyle=orthogonalEdgeStyle;rounded=0;orthogonalLoop=1;jettySize=auto;html=1;exitX=1;exitY=0.5;exitDx=0;exitDy=0;entryX=0;entryY=0.5;entryDx=0;entryDy=0;" parent="1" source="0rEUQk80sUEZ4fooKw1v-65" target="QX1UlTcq-nTEOAcM45bA-31" edge="1">
          <mxGeometry relative="1" as="geometry" />
        </mxCell>
        <mxCell id="0rEUQk80sUEZ4fooKw1v-65" value="&lt;div style=&quot;font-family: Consolas, &amp;quot;Courier New&amp;quot;, monospace; font-size: 14px; line-height: 19px;&quot;&gt;UsbBuildDescTable &lt;span style=&quot;&quot;&gt;(&lt;/span&gt;&lt;span style=&quot;&quot;&gt;Child&lt;/span&gt;&lt;span style=&quot;&quot;&gt;)&lt;/span&gt;&lt;/div&gt;&lt;div style=&quot;font-family: Consolas, &amp;quot;Courier New&amp;quot;, monospace; font-size: 14px; line-height: 19px;&quot;&gt;&lt;span style=&quot;&quot;&gt;获取USB的描述符信息&lt;/span&gt;&lt;/div&gt;" style="rounded=0;whiteSpace=wrap;html=1;labelBackgroundColor=none;fillColor=#dae8fc;strokeColor=#6c8ebf;" parent="1" vertex="1">
          <mxGeometry x="-500" y="1250" width="400" height="40" as="geometry" />
        </mxCell>
        <mxCell id="0rEUQk80sUEZ4fooKw1v-68" value="&lt;div style=&quot;color: rgb(218, 218, 218); background-color: rgb(30, 30, 30); font-family: Consolas, &amp;quot;Courier New&amp;quot;, monospace; font-weight: normal; font-size: 14px; line-height: 19px;&quot;&gt;&lt;div&gt;&lt;span style=&quot;color: #e8c9bb;&quot;&gt;&quot;&lt;/span&gt;&lt;span style=&quot;color: #ce9178;&quot;&gt;UsbEnumerateNewDev: failed to build descriptor table - &lt;/span&gt;&lt;span style=&quot;color: #f44747;&quot;&gt;%&lt;/span&gt;&lt;span style=&quot;color: #ce9178;&quot;&gt;r&lt;/span&gt;&lt;span style=&quot;color: #ffd68f;&quot;&gt;\n&lt;/span&gt;&lt;span style=&quot;color: #e8c9bb;&quot;&gt;&quot;&lt;/span&gt;&lt;/div&gt;&lt;/div&gt;" style="text;whiteSpace=wrap;html=1;" parent="1" vertex="1">
          <mxGeometry x="-460" y="1360" width="500" height="40" as="geometry" />
        </mxCell>
        <mxCell id="0rEUQk80sUEZ4fooKw1v-75" style="edgeStyle=orthogonalEdgeStyle;rounded=0;orthogonalLoop=1;jettySize=auto;html=1;exitX=1;exitY=0.5;exitDx=0;exitDy=0;entryX=0;entryY=0.5;entryDx=0;entryDy=0;" parent="1" source="0rEUQk80sUEZ4fooKw1v-72" target="0rEUQk80sUEZ4fooKw1v-74" edge="1">
          <mxGeometry relative="1" as="geometry" />
        </mxCell>
        <mxCell id="0rEUQk80sUEZ4fooKw1v-76" value="&lt;font style=&quot;font-size: 15px;&quot;&gt;ERROR&lt;/font&gt;" style="edgeLabel;html=1;align=center;verticalAlign=middle;resizable=0;points=[];" parent="0rEUQk80sUEZ4fooKw1v-75" vertex="1" connectable="0">
          <mxGeometry x="-0.2842" y="-4" relative="1" as="geometry">
            <mxPoint as="offset" />
          </mxGeometry>
        </mxCell>
        <mxCell id="0rEUQk80sUEZ4fooKw1v-72" value="&lt;div style=&quot;font-family: Consolas, &amp;quot;Courier New&amp;quot;, monospace; font-size: 14px; line-height: 19px;&quot;&gt;UsbSetConfig &lt;span style=&quot;&quot;&gt;(&lt;/span&gt;&lt;span style=&quot;&quot;&gt;Child&lt;/span&gt;&lt;span style=&quot;&quot;&gt;,&lt;/span&gt; &lt;span style=&quot;&quot;&gt;Config&lt;/span&gt;&lt;span style=&quot;&quot;&gt;)&lt;/span&gt;&lt;/div&gt;" style="rounded=0;whiteSpace=wrap;html=1;labelBackgroundColor=none;fillColor=#dae8fc;strokeColor=#6c8ebf;" parent="1" vertex="1">
          <mxGeometry x="-500" y="1430" width="240" height="40" as="geometry" />
        </mxCell>
        <mxCell id="0rEUQk80sUEZ4fooKw1v-74" value="&lt;div style=&quot;color: rgb(218, 218, 218); background-color: rgb(30, 30, 30); font-family: Consolas, &amp;quot;Courier New&amp;quot;, monospace; font-weight: normal; font-size: 14px; line-height: 19px;&quot;&gt;&lt;div&gt;&lt;span style=&quot;color: #e8c9bb;&quot;&gt;&quot;&lt;/span&gt;&lt;span style=&quot;color: #ce9178;&quot;&gt;UsbEnumerateNewDev: failed to set configure &lt;/span&gt;&lt;span style=&quot;color: #9cdcfe;&quot;&gt;%d&lt;/span&gt;&lt;span style=&quot;color: #ce9178;&quot;&gt; - &lt;/span&gt;&lt;span style=&quot;color: #f44747;&quot;&gt;%&lt;/span&gt;&lt;span style=&quot;color: #ce9178;&quot;&gt;r&lt;/span&gt;&lt;span style=&quot;color: #ffd68f;&quot;&gt;\n&lt;/span&gt;&lt;span style=&quot;color: #e8c9bb;&quot;&gt;&quot;&lt;/span&gt;&lt;/div&gt;&lt;/div&gt;" style="text;whiteSpace=wrap;html=1;" parent="1" vertex="1">
          <mxGeometry x="-140" y="1430" width="460" height="40" as="geometry" />
        </mxCell>
        <mxCell id="0rEUQk80sUEZ4fooKw1v-77" value="&lt;div style=&quot;color: rgb(218, 218, 218); background-color: rgb(30, 30, 30); font-family: Consolas, &amp;quot;Courier New&amp;quot;, monospace; font-weight: normal; font-size: 14px; line-height: 19px;&quot;&gt;&lt;div&gt;&lt;span style=&quot;color: #e8c9bb;&quot;&gt;&quot;&lt;/span&gt;&lt;span style=&quot;color: #ce9178;&quot;&gt;UsbEnumerateNewDev: device &lt;/span&gt;&lt;span style=&quot;color: #9cdcfe;&quot;&gt;%d&lt;/span&gt;&lt;span style=&quot;color: #ce9178;&quot;&gt; is now in CONFIGED state&lt;/span&gt;&lt;span style=&quot;color: #ffd68f;&quot;&gt;\n&lt;/span&gt;&lt;span style=&quot;color: #e8c9bb;&quot;&gt;&quot;&lt;/span&gt;&lt;/div&gt;&lt;/div&gt;" style="text;whiteSpace=wrap;html=1;" parent="1" vertex="1">
          <mxGeometry x="-500" y="1500" width="480" height="40" as="geometry" />
        </mxCell>
        <mxCell id="kIxeN6XrM4gD7OjRy0_J-8" style="edgeStyle=orthogonalEdgeStyle;rounded=0;orthogonalLoop=1;jettySize=auto;html=1;exitX=1;exitY=0.5;exitDx=0;exitDy=0;entryX=0;entryY=0.5;entryDx=0;entryDy=0;" parent="1" source="0rEUQk80sUEZ4fooKw1v-82" target="kIxeN6XrM4gD7OjRy0_J-7" edge="1">
          <mxGeometry relative="1" as="geometry" />
        </mxCell>
        <mxCell id="kIxeN6XrM4gD7OjRy0_J-12" style="edgeStyle=orthogonalEdgeStyle;rounded=0;orthogonalLoop=1;jettySize=auto;html=1;exitX=1;exitY=0.5;exitDx=0;exitDy=0;entryX=0;entryY=0.5;entryDx=0;entryDy=0;" parent="1" source="0rEUQk80sUEZ4fooKw1v-82" target="kIxeN6XrM4gD7OjRy0_J-11" edge="1">
          <mxGeometry relative="1" as="geometry" />
        </mxCell>
        <mxCell id="QX1UlTcq-nTEOAcM45bA-34" style="edgeStyle=orthogonalEdgeStyle;rounded=0;orthogonalLoop=1;jettySize=auto;html=1;exitX=1;exitY=0.5;exitDx=0;exitDy=0;entryX=0;entryY=0.5;entryDx=0;entryDy=0;" parent="1" source="0rEUQk80sUEZ4fooKw1v-82" target="QX1UlTcq-nTEOAcM45bA-33" edge="1">
          <mxGeometry relative="1" as="geometry" />
        </mxCell>
        <mxCell id="QX1UlTcq-nTEOAcM45bA-35" style="edgeStyle=orthogonalEdgeStyle;rounded=0;orthogonalLoop=1;jettySize=auto;html=1;exitX=1;exitY=0.5;exitDx=0;exitDy=0;entryX=0;entryY=0.5;entryDx=0;entryDy=0;" parent="1" source="0rEUQk80sUEZ4fooKw1v-82" target="kIxeN6XrM4gD7OjRy0_J-9" edge="1">
          <mxGeometry relative="1" as="geometry" />
        </mxCell>
        <mxCell id="0rEUQk80sUEZ4fooKw1v-82" value="&lt;div style=&quot;font-family: Consolas, &amp;quot;Courier New&amp;quot;, monospace; font-size: 14px; line-height: 19px;&quot;&gt;UsbSelectConfig &lt;span style=&quot;&quot;&gt;(&lt;/span&gt;&lt;span style=&quot;&quot;&gt;Child&lt;/span&gt;&lt;span style=&quot;&quot;&gt;,&lt;/span&gt; &lt;span style=&quot;&quot;&gt;Config&lt;/span&gt;&lt;span style=&quot;&quot;&gt;)&lt;/span&gt;&lt;/div&gt;" style="rounded=0;whiteSpace=wrap;html=1;labelBackgroundColor=none;fillColor=#dae8fc;strokeColor=#6c8ebf;" parent="1" vertex="1">
          <mxGeometry x="-500" y="1560" width="250" height="40" as="geometry" />
        </mxCell>
        <mxCell id="0rEUQk80sUEZ4fooKw1v-92" value="&lt;div style=&quot;font-family: Consolas, &amp;quot;Courier New&amp;quot;, monospace; font-size: 14px; line-height: 19px;&quot;&gt;UsbGetDevDesc &lt;span style=&quot;&quot;&gt;(&lt;/span&gt;&lt;span style=&quot;&quot;&gt;UsbDev&lt;/span&gt;&lt;span style=&quot;&quot;&gt;)&lt;br&gt;获取Device Descriptor&lt;/span&gt;&lt;/div&gt;" style="rounded=0;whiteSpace=wrap;html=1;labelBackgroundColor=none;fillColor=#dae8fc;strokeColor=#6c8ebf;" parent="1" vertex="1">
          <mxGeometry x="210" y="1180" width="190" height="40" as="geometry" />
        </mxCell>
        <mxCell id="0rEUQk80sUEZ4fooKw1v-94" value="&lt;div style=&quot;color: rgb(218, 218, 218); background-color: rgb(30, 30, 30); font-family: Consolas, &amp;quot;Courier New&amp;quot;, monospace; font-weight: normal; font-size: 14px; line-height: 19px;&quot;&gt;&lt;div&gt;&lt;span style=&quot;color: #e8c9bb;&quot;&gt;&quot;&lt;/span&gt;&lt;span style=&quot;color: #ce9178;&quot;&gt;UsbBuildDescTable: device has &lt;/span&gt;&lt;span style=&quot;color: #9cdcfe;&quot;&gt;%d&lt;/span&gt;&lt;span style=&quot;color: #ce9178;&quot;&gt; configures&lt;/span&gt;&lt;span style=&quot;color: #ffd68f;&quot;&gt;\n&lt;/span&gt;&lt;span style=&quot;color: #e8c9bb;&quot;&gt;&quot;&lt;/span&gt;&lt;/div&gt;&lt;/div&gt;" style="text;whiteSpace=wrap;html=1;" parent="1" vertex="1">
          <mxGeometry x="210" y="1230" width="400" height="40" as="geometry" />
        </mxCell>
        <mxCell id="0rEUQk80sUEZ4fooKw1v-96" value="&lt;div style=&quot;font-family: Consolas, &amp;quot;Courier New&amp;quot;, monospace; font-size: 14px; line-height: 19px;&quot;&gt;HubApi&lt;span style=&quot;&quot;&gt;-&amp;gt;&lt;/span&gt;ClearPortChange &lt;span style=&quot;&quot;&gt;(&lt;/span&gt;&lt;span style=&quot;&quot;&gt;HubIf&lt;/span&gt;&lt;span style=&quot;&quot;&gt;,&lt;/span&gt; &lt;span style=&quot;&quot;&gt;Port&lt;/span&gt;&lt;span style=&quot;&quot;&gt;)&lt;/span&gt;&lt;/div&gt;" style="rounded=0;whiteSpace=wrap;html=1;labelBackgroundColor=none;fillColor=#dae8fc;strokeColor=#6c8ebf;" parent="1" vertex="1">
          <mxGeometry x="-1060" y="610" width="290" height="40" as="geometry" />
        </mxCell>
        <mxCell id="kIxeN6XrM4gD7OjRy0_J-1" value="&lt;div style=&quot;color: rgb(218, 218, 218); background-color: rgb(30, 30, 30); font-family: Consolas, &amp;quot;Courier New&amp;quot;, monospace; font-weight: normal; font-size: 14px; line-height: 19px;&quot;&gt;&lt;div&gt;&lt;span style=&quot;color: #e8c9bb;&quot;&gt;&quot;&lt;/span&gt;&lt;span style=&quot;color: #ce9178;&quot;&gt;UsbEnumerateNewDev: failed to get speed of port &lt;/span&gt;&lt;span style=&quot;color: #9cdcfe;&quot;&gt;%d&lt;/span&gt;&lt;span style=&quot;color: #ffd68f;&quot;&gt;\n&lt;/span&gt;&lt;span style=&quot;color: #e8c9bb;&quot;&gt;&quot;&lt;/span&gt;&lt;/div&gt;&lt;/div&gt;" style="text;whiteSpace=wrap;html=1;" parent="1" vertex="1">
          <mxGeometry x="-30" y="670" width="450" height="40" as="geometry" />
        </mxCell>
        <mxCell id="kIxeN6XrM4gD7OjRy0_J-3" value="&lt;div style=&quot;color: rgb(218, 218, 218); background-color: rgb(30, 30, 30); font-family: Consolas, &amp;quot;Courier New&amp;quot;, monospace; font-weight: normal; font-size: 14px; line-height: 19px;&quot;&gt;&lt;div&gt;&lt;span style=&quot;color: #e8c9bb;&quot;&gt;&quot;&lt;/span&gt;&lt;span style=&quot;color: #ce9178;&quot;&gt;UsbEnumerateNewDev: No device present at port &lt;/span&gt;&lt;span style=&quot;color: #9cdcfe;&quot;&gt;%d&lt;/span&gt;&lt;span style=&quot;color: #ffd68f;&quot;&gt;\n&lt;/span&gt;&lt;span style=&quot;color: #e8c9bb;&quot;&gt;&quot;&lt;/span&gt;&lt;/div&gt;&lt;/div&gt;" style="text;whiteSpace=wrap;html=1;" parent="1" vertex="1">
          <mxGeometry x="-30" y="780" width="430" height="40" as="geometry" />
        </mxCell>
        <mxCell id="kIxeN6XrM4gD7OjRy0_J-7" value="&lt;div style=&quot;color: rgb(218, 218, 218); background-color: rgb(30, 30, 30); font-family: Consolas, &amp;quot;Courier New&amp;quot;, monospace; font-weight: normal; font-size: 14px; line-height: 19px;&quot;&gt;&lt;div&gt;&lt;span style=&quot;color: #e8c9bb;&quot;&gt;&quot;&lt;/span&gt;&lt;span style=&quot;color: #ce9178;&quot;&gt;UsbSelectConfig: config &lt;/span&gt;&lt;span style=&quot;color: #9cdcfe;&quot;&gt;%d&lt;/span&gt;&lt;span style=&quot;color: #ce9178;&quot;&gt; selected for device &lt;/span&gt;&lt;span style=&quot;color: #9cdcfe;&quot;&gt;%d&lt;/span&gt;&lt;span style=&quot;color: #ffd68f;&quot;&gt;\n&lt;/span&gt;&lt;span style=&quot;color: #e8c9bb;&quot;&gt;&quot;&lt;/span&gt;&lt;/div&gt;&lt;/div&gt;" style="text;whiteSpace=wrap;html=1;" parent="1" vertex="1">
          <mxGeometry x="-120" y="1540" width="440" height="40" as="geometry" />
        </mxCell>
        <mxCell id="kIxeN6XrM4gD7OjRy0_J-9" value="&lt;div style=&quot;font-family: Consolas, &amp;quot;Courier New&amp;quot;, monospace; font-size: 14px; line-height: 19px;&quot;&gt;UsbCreateInterface &lt;span style=&quot;&quot;&gt;(&lt;/span&gt;&lt;span style=&quot;&quot;&gt;Device&lt;/span&gt;&lt;span style=&quot;&quot;&gt;,&lt;/span&gt; &lt;span style=&quot;&quot;&gt;ConfigDesc&lt;/span&gt;&lt;span style=&quot;&quot;&gt;-&amp;gt;&lt;/span&gt;Interfaces&lt;span style=&quot;&quot;&gt;[&lt;/span&gt;&lt;span style=&quot;&quot;&gt;Index&lt;/span&gt;&lt;span style=&quot;&quot;&gt;])&lt;/span&gt;&lt;/div&gt;&lt;div style=&quot;font-family: Consolas, &amp;quot;Courier New&amp;quot;, monospace; font-size: 14px; line-height: 19px;&quot;&gt;&lt;span style=&quot;&quot;&gt;创建USB_INTERFACE、安装Protocol（如USB_IO）&lt;/span&gt;&lt;/div&gt;" style="rounded=0;whiteSpace=wrap;html=1;labelBackgroundColor=none;fillColor=#dae8fc;strokeColor=#6c8ebf;" parent="1" vertex="1">
          <mxGeometry x="-120" y="1650" width="450" height="50" as="geometry" />
        </mxCell>
        <mxCell id="kIxeN6XrM4gD7OjRy0_J-15" style="edgeStyle=orthogonalEdgeStyle;rounded=0;orthogonalLoop=1;jettySize=auto;html=1;exitX=1;exitY=0.5;exitDx=0;exitDy=0;entryX=0;entryY=0.5;entryDx=0;entryDy=0;" parent="1" source="kIxeN6XrM4gD7OjRy0_J-11" target="kIxeN6XrM4gD7OjRy0_J-14" edge="1">
          <mxGeometry relative="1" as="geometry" />
        </mxCell>
        <mxCell id="kIxeN6XrM4gD7OjRy0_J-16" value="是HUB" style="edgeLabel;html=1;align=center;verticalAlign=middle;resizable=0;points=[];" parent="kIxeN6XrM4gD7OjRy0_J-15" vertex="1" connectable="0">
          <mxGeometry x="-0.6585" y="-1" relative="1" as="geometry">
            <mxPoint as="offset" />
          </mxGeometry>
        </mxCell>
        <mxCell id="kIxeN6XrM4gD7OjRy0_J-18" style="edgeStyle=orthogonalEdgeStyle;rounded=0;orthogonalLoop=1;jettySize=auto;html=1;exitX=1;exitY=0.5;exitDx=0;exitDy=0;" parent="1" source="kIxeN6XrM4gD7OjRy0_J-11" target="kIxeN6XrM4gD7OjRy0_J-17" edge="1">
          <mxGeometry relative="1" as="geometry" />
        </mxCell>
        <mxCell id="kIxeN6XrM4gD7OjRy0_J-23" style="edgeStyle=orthogonalEdgeStyle;rounded=0;orthogonalLoop=1;jettySize=auto;html=1;exitX=0.75;exitY=1;exitDx=0;exitDy=0;entryX=0;entryY=0.5;entryDx=0;entryDy=0;" parent="1" source="kIxeN6XrM4gD7OjRy0_J-11" target="kIxeN6XrM4gD7OjRy0_J-19" edge="1">
          <mxGeometry relative="1" as="geometry" />
        </mxCell>
        <mxCell id="kIxeN6XrM4gD7OjRy0_J-25" style="edgeStyle=orthogonalEdgeStyle;rounded=0;orthogonalLoop=1;jettySize=auto;html=1;exitX=0.75;exitY=1;exitDx=0;exitDy=0;entryX=0;entryY=0.5;entryDx=0;entryDy=0;" parent="1" source="kIxeN6XrM4gD7OjRy0_J-11" target="kIxeN6XrM4gD7OjRy0_J-20" edge="1">
          <mxGeometry relative="1" as="geometry" />
        </mxCell>
        <mxCell id="QX1UlTcq-nTEOAcM45bA-5" style="edgeStyle=orthogonalEdgeStyle;rounded=0;orthogonalLoop=1;jettySize=auto;html=1;exitX=0.75;exitY=1;exitDx=0;exitDy=0;entryX=0;entryY=0.5;entryDx=0;entryDy=0;" parent="1" source="kIxeN6XrM4gD7OjRy0_J-11" target="kIxeN6XrM4gD7OjRy0_J-21" edge="1">
          <mxGeometry relative="1" as="geometry" />
        </mxCell>
        <mxCell id="QX1UlTcq-nTEOAcM45bA-6" value="不是HUB" style="edgeLabel;html=1;align=center;verticalAlign=middle;resizable=0;points=[];" parent="QX1UlTcq-nTEOAcM45bA-5" vertex="1" connectable="0">
          <mxGeometry x="-0.6776" relative="1" as="geometry">
            <mxPoint as="offset" />
          </mxGeometry>
        </mxCell>
        <mxCell id="kIxeN6XrM4gD7OjRy0_J-11" value="&lt;div style=&quot;font-family: Consolas, &amp;quot;Courier New&amp;quot;, monospace; font-size: 14px; line-height: 19px;&quot;&gt;UsbConnectDriver &lt;span style=&quot;&quot;&gt;(&lt;/span&gt;&lt;span style=&quot;&quot;&gt;UsbIf&lt;/span&gt;&lt;span style=&quot;&quot;&gt;)&lt;/span&gt;&lt;/div&gt;" style="rounded=0;whiteSpace=wrap;html=1;labelBackgroundColor=none;fillColor=#dae8fc;strokeColor=#6c8ebf;" parent="1" vertex="1">
          <mxGeometry x="-120" y="1730" width="220" height="40" as="geometry" />
        </mxCell>
        <mxCell id="kIxeN6XrM4gD7OjRy0_J-14" value="&lt;div style=&quot;color: rgb(218, 218, 218); background-color: rgb(30, 30, 30); font-family: Consolas, &amp;quot;Courier New&amp;quot;, monospace; font-weight: normal; font-size: 14px; line-height: 19px;&quot;&gt;&lt;div&gt;&lt;span style=&quot;color: #e8c9bb;&quot;&gt;&quot;&lt;/span&gt;&lt;span style=&quot;color: #ce9178;&quot;&gt;UsbConnectDriver: found a hub device&lt;/span&gt;&lt;span style=&quot;color: #ffd68f;&quot;&gt;\n&lt;/span&gt;&lt;span style=&quot;color: #e8c9bb;&quot;&gt;&quot;&lt;/span&gt;&lt;/div&gt;&lt;/div&gt;" style="text;whiteSpace=wrap;html=1;" parent="1" vertex="1">
          <mxGeometry x="280" y="1700" width="340" height="40" as="geometry" />
        </mxCell>
        <mxCell id="kIxeN6XrM4gD7OjRy0_J-17" value="&lt;div style=&quot;font-family: Consolas, &amp;quot;Courier New&amp;quot;, monospace; font-size: 14px; line-height: 19px;&quot;&gt;mUsbHubApi&lt;span style=&quot;&quot;&gt;.&lt;/span&gt;Init &lt;span style=&quot;&quot;&gt;(&lt;/span&gt;&lt;span style=&quot;&quot;&gt;UsbIf&lt;/span&gt;&lt;span style=&quot;&quot;&gt;)&lt;/span&gt;&lt;/div&gt;" style="rounded=0;whiteSpace=wrap;html=1;labelBackgroundColor=none;fillColor=#d5e8d4;strokeColor=#82b366;" parent="1" vertex="1">
          <mxGeometry x="280" y="1760" width="240" height="30" as="geometry" />
        </mxCell>
        <mxCell id="kIxeN6XrM4gD7OjRy0_J-19" value="&lt;div style=&quot;color: rgb(218, 218, 218); background-color: rgb(30, 30, 30); font-family: Consolas, &amp;quot;Courier New&amp;quot;, monospace; font-weight: normal; font-size: 14px; line-height: 19px;&quot;&gt;&lt;div&gt;&lt;span style=&quot;color: #e8c9bb;&quot;&gt;&quot;&lt;/span&gt;&lt;span style=&quot;color: #ce9178;&quot;&gt;UsbConnectDriver: TPL before connect is &lt;/span&gt;&lt;span style=&quot;color: #9cdcfe;&quot;&gt;%d&lt;/span&gt;&lt;span style=&quot;color: #ce9178;&quot;&gt;, &lt;/span&gt;&lt;span style=&quot;color: #9cdcfe;&quot;&gt;%p&lt;/span&gt;&lt;span style=&quot;color: #ffd68f;&quot;&gt;\n&lt;/span&gt;&lt;span style=&quot;color: #e8c9bb;&quot;&gt;&quot;&lt;/span&gt;&lt;/div&gt;&lt;/div&gt;" style="text;whiteSpace=wrap;html=1;" parent="1" vertex="1">
          <mxGeometry x="140" y="1860" width="420" height="40" as="geometry" />
        </mxCell>
        <mxCell id="kIxeN6XrM4gD7OjRy0_J-20" value="&lt;div style=&quot;font-family: Consolas, &amp;quot;Courier New&amp;quot;, monospace; font-size: 14px; line-height: 19px;&quot;&gt;gBS&lt;span style=&quot;&quot;&gt;-&amp;gt;&lt;/span&gt;ConnectController &lt;span style=&quot;&quot;&gt;(&lt;/span&gt;&lt;span style=&quot;&quot;&gt;UsbIf&lt;/span&gt;&lt;span style=&quot;&quot;&gt;-&amp;gt;&lt;/span&gt;Handle&lt;span style=&quot;&quot;&gt;,&lt;/span&gt; &lt;span style=&quot;&quot;&gt;NULL&lt;/span&gt;&lt;span style=&quot;&quot;&gt;,&lt;/span&gt; &lt;span style=&quot;&quot;&gt;NULL&lt;/span&gt;&lt;span style=&quot;&quot;&gt;,&lt;/span&gt; &lt;span style=&quot;&quot;&gt;TRUE&lt;/span&gt;&lt;span style=&quot;&quot;&gt;)&lt;/span&gt;&lt;/div&gt;" style="rounded=0;whiteSpace=wrap;html=1;labelBackgroundColor=none;fillColor=#dae8fc;strokeColor=#6c8ebf;" parent="1" vertex="1">
          <mxGeometry x="140" y="1930" width="440" height="30" as="geometry" />
        </mxCell>
        <mxCell id="kIxeN6XrM4gD7OjRy0_J-21" value="&lt;div style=&quot;color: rgb(218, 218, 218); background-color: rgb(30, 30, 30); font-family: Consolas, &amp;quot;Courier New&amp;quot;, monospace; font-weight: normal; font-size: 14px; line-height: 19px;&quot;&gt;&lt;div&gt;&lt;span style=&quot;color: #e8c9bb;&quot;&gt;&quot;&lt;/span&gt;&lt;span style=&quot;color: #ce9178;&quot;&gt;UsbConnectDriver: TPL after connect is &lt;/span&gt;&lt;span style=&quot;color: #9cdcfe;&quot;&gt;%d&lt;/span&gt;&lt;span style=&quot;color: #ffd68f;&quot;&gt;\n&lt;/span&gt;&lt;span style=&quot;color: #e8c9bb;&quot;&gt;&quot;&lt;/span&gt;&lt;/div&gt;&lt;/div&gt;" style="text;whiteSpace=wrap;html=1;" parent="1" vertex="1">
          <mxGeometry x="140" y="1990" width="380" height="40" as="geometry" />
        </mxCell>
        <mxCell id="QX1UlTcq-nTEOAcM45bA-1" value="&lt;div style=&quot;font-family: Consolas, &amp;quot;Courier New&amp;quot;, monospace; font-size: 14px; line-height: 19px;&quot;&gt;UsbHubSetPortFeature &lt;span style=&quot;&quot;&gt;(&lt;/span&gt;&lt;span style=&quot;&quot;&gt;HubIf&lt;/span&gt;&lt;span style=&quot;&quot;&gt;,&lt;/span&gt; &lt;span style=&quot;&quot;&gt;Port&lt;/span&gt;&lt;span style=&quot;&quot;&gt;,&lt;/span&gt; &lt;span style=&quot;&quot;&gt;(&lt;/span&gt;&lt;span style=&quot;&quot;&gt;EFI_USB_PORT_FEATURE&lt;/span&gt;&lt;span style=&quot;&quot;&gt;)&lt;/span&gt;&lt;span style=&quot;&quot;&gt;USB_HUB_PORT_RESET&lt;/span&gt;&lt;span style=&quot;&quot;&gt;)&lt;/span&gt;&lt;/div&gt;" style="rounded=0;whiteSpace=wrap;html=1;labelBackgroundColor=none;fillColor=#dae8fc;strokeColor=#6c8ebf;" parent="1" vertex="1">
          <mxGeometry x="-60" y="470" width="610" height="40" as="geometry" />
        </mxCell>
        <mxCell id="QX1UlTcq-nTEOAcM45bA-9" style="edgeStyle=orthogonalEdgeStyle;rounded=0;orthogonalLoop=1;jettySize=auto;html=1;exitX=1;exitY=0.5;exitDx=0;exitDy=0;entryX=0;entryY=0.5;entryDx=0;entryDy=0;" parent="1" source="QX1UlTcq-nTEOAcM45bA-3" target="QX1UlTcq-nTEOAcM45bA-8" edge="1">
          <mxGeometry relative="1" as="geometry" />
        </mxCell>
        <mxCell id="QX1UlTcq-nTEOAcM45bA-3" value="&lt;div style=&quot;color: rgb(218, 218, 218); font-family: Consolas, &amp;quot;Courier New&amp;quot;, monospace; font-size: 14px; line-height: 19px;&quot;&gt;UsbHubGetPortStatus &lt;span style=&quot;color: #b4b4b4;&quot;&gt;(&lt;/span&gt;&lt;span style=&quot;color: #9a9a9a;&quot;&gt;HubIf&lt;/span&gt;&lt;span style=&quot;color: #b4b4b4;&quot;&gt;,&lt;/span&gt; &lt;span style=&quot;color: #9a9a9a;&quot;&gt;Port&lt;/span&gt;&lt;span style=&quot;color: #b4b4b4;&quot;&gt;,&lt;/span&gt; &lt;span style=&quot;color: #b4b4b4;&quot;&gt;&amp;amp;&lt;/span&gt;&lt;span style=&quot;color: #9cdcfe;&quot;&gt;PortState&lt;/span&gt;&lt;span style=&quot;color: #b4b4b4;&quot;&gt;)&lt;/span&gt;&lt;/div&gt;" style="rounded=0;whiteSpace=wrap;html=1;fillColor=#e51400;fontColor=#ffffff;strokeColor=#B20000;labelBackgroundColor=none;" parent="1" vertex="1">
          <mxGeometry x="-60" y="540" width="370" height="40" as="geometry" />
        </mxCell>
        <mxCell id="QX1UlTcq-nTEOAcM45bA-12" style="edgeStyle=orthogonalEdgeStyle;rounded=0;orthogonalLoop=1;jettySize=auto;html=1;exitX=1;exitY=0.5;exitDx=0;exitDy=0;entryX=0;entryY=0.5;entryDx=0;entryDy=0;" parent="1" source="QX1UlTcq-nTEOAcM45bA-8" target="QX1UlTcq-nTEOAcM45bA-10" edge="1">
          <mxGeometry relative="1" as="geometry" />
        </mxCell>
        <mxCell id="QX1UlTcq-nTEOAcM45bA-8" value="&lt;div style=&quot;font-family: Consolas, &amp;quot;Courier New&amp;quot;, monospace; font-size: 14px; line-height: 19px;&quot;&gt;UsbHubCtrlGetPortStatus &lt;span style=&quot;&quot;&gt;(&lt;/span&gt;&lt;span style=&quot;&quot;&gt;HubIf&lt;/span&gt;&lt;span style=&quot;&quot;&gt;-&amp;gt;&lt;/span&gt;Device&lt;span style=&quot;&quot;&gt;,&lt;/span&gt; &lt;span style=&quot;&quot;&gt;Port&lt;/span&gt;&lt;span style=&quot;&quot;&gt;,&lt;/span&gt; &lt;span style=&quot;&quot;&gt;PortState&lt;/span&gt;&lt;span style=&quot;&quot;&gt;)&lt;/span&gt;&lt;/div&gt;" style="rounded=0;whiteSpace=wrap;html=1;fillColor=#e51400;fontColor=#FFFFFF;strokeColor=#B20000;labelBackgroundColor=none;" parent="1" vertex="1">
          <mxGeometry x="370" y="540" width="440" height="40" as="geometry" />
        </mxCell>
        <mxCell id="QX1UlTcq-nTEOAcM45bA-14" style="edgeStyle=orthogonalEdgeStyle;rounded=0;orthogonalLoop=1;jettySize=auto;html=1;exitX=1;exitY=0.5;exitDx=0;exitDy=0;entryX=0;entryY=0.5;entryDx=0;entryDy=0;" parent="1" source="QX1UlTcq-nTEOAcM45bA-10" target="QX1UlTcq-nTEOAcM45bA-13" edge="1">
          <mxGeometry relative="1" as="geometry" />
        </mxCell>
        <mxCell id="QX1UlTcq-nTEOAcM45bA-10" value="&lt;div style=&quot;color: rgb(218, 218, 218); font-family: Consolas, &amp;quot;Courier New&amp;quot;, monospace; font-size: 14px; line-height: 19px;&quot;&gt;UsbCtrlRequest&lt;/div&gt;" style="rounded=0;whiteSpace=wrap;html=1;fillColor=#e51400;fontColor=#ffffff;strokeColor=#B20000;labelBackgroundColor=none;" parent="1" vertex="1">
          <mxGeometry x="870" y="540" width="120" height="40" as="geometry" />
        </mxCell>
        <mxCell id="QX1UlTcq-nTEOAcM45bA-18" style="edgeStyle=orthogonalEdgeStyle;rounded=0;orthogonalLoop=1;jettySize=auto;html=1;exitX=1;exitY=0.5;exitDx=0;exitDy=0;" parent="1" source="QX1UlTcq-nTEOAcM45bA-13" target="QX1UlTcq-nTEOAcM45bA-17" edge="1">
          <mxGeometry relative="1" as="geometry" />
        </mxCell>
        <mxCell id="QX1UlTcq-nTEOAcM45bA-13" value="UsbHcControlTransfer" style="rounded=0;whiteSpace=wrap;html=1;fillColor=#e51400;fontColor=#ffffff;strokeColor=#B20000;" parent="1" vertex="1">
          <mxGeometry x="1060" y="540" width="130" height="40" as="geometry" />
        </mxCell>
        <mxCell id="QX1UlTcq-nTEOAcM45bA-21" style="edgeStyle=orthogonalEdgeStyle;rounded=0;orthogonalLoop=1;jettySize=auto;html=1;exitX=1;exitY=0.5;exitDx=0;exitDy=0;" parent="1" source="QX1UlTcq-nTEOAcM45bA-17" target="QX1UlTcq-nTEOAcM45bA-19" edge="1">
          <mxGeometry relative="1" as="geometry" />
        </mxCell>
        <mxCell id="QX1UlTcq-nTEOAcM45bA-17" value="XhcControlTransfer" style="rounded=0;whiteSpace=wrap;html=1;fillColor=#e51400;fontColor=#ffffff;strokeColor=#B20000;" parent="1" vertex="1">
          <mxGeometry x="1240" y="545" width="120" height="30" as="geometry" />
        </mxCell>
        <mxCell id="QX1UlTcq-nTEOAcM45bA-22" style="edgeStyle=orthogonalEdgeStyle;rounded=0;orthogonalLoop=1;jettySize=auto;html=1;exitX=1;exitY=0.5;exitDx=0;exitDy=0;entryX=0;entryY=0.5;entryDx=0;entryDy=0;" parent="1" source="QX1UlTcq-nTEOAcM45bA-19" target="QX1UlTcq-nTEOAcM45bA-20" edge="1">
          <mxGeometry relative="1" as="geometry" />
        </mxCell>
        <mxCell id="QX1UlTcq-nTEOAcM45bA-19" value="XhcPollPortStatusChange" style="rounded=0;whiteSpace=wrap;html=1;fillColor=#e51400;fontColor=#ffffff;strokeColor=#B20000;" parent="1" vertex="1">
          <mxGeometry x="1410" y="540" width="150" height="40" as="geometry" />
        </mxCell>
        <mxCell id="QX1UlTcq-nTEOAcM45bA-20" value="XhcInitializeDeviceSlot64" style="rounded=0;whiteSpace=wrap;html=1;fillColor=#e51400;fontColor=#ffffff;strokeColor=#B20000;" parent="1" vertex="1">
          <mxGeometry x="1610" y="540" width="150" height="40" as="geometry" />
        </mxCell>
        <mxCell id="QX1UlTcq-nTEOAcM45bA-27" value="&lt;div style=&quot;font-family: Consolas, &amp;quot;Courier New&amp;quot;, monospace; font-size: 14px; line-height: 19px;&quot;&gt;UsbGetOneConfig &lt;span style=&quot;&quot;&gt;(&lt;/span&gt;&lt;span style=&quot;&quot;&gt;UsbDev&lt;/span&gt;&lt;span style=&quot;&quot;&gt;,&lt;/span&gt; &lt;span style=&quot;&quot;&gt;Index&lt;/span&gt;&lt;span style=&quot;&quot;&gt;)&lt;/span&gt;&lt;/div&gt;" style="rounded=0;whiteSpace=wrap;html=1;fillColor=#dae8fc;strokeColor=#6c8ebf;labelBackgroundColor=none;fontColor=default;" parent="1" vertex="1">
          <mxGeometry x="210" y="1270" width="260" height="40" as="geometry" />
        </mxCell>
        <mxCell id="QX1UlTcq-nTEOAcM45bA-28" value="&lt;div style=&quot;font-family: Consolas, &amp;quot;Courier New&amp;quot;, monospace; font-size: 14px; line-height: 19px;&quot;&gt;UsbParseConfigDesc &lt;span style=&quot;&quot;&gt;((&lt;/span&gt;&lt;span style=&quot;&quot;&gt;UINT8&lt;/span&gt; &lt;span style=&quot;&quot;&gt;*)&lt;/span&gt;&lt;span style=&quot;&quot;&gt;Config&lt;/span&gt;&lt;span style=&quot;&quot;&gt;,&lt;/span&gt; &lt;span style=&quot;&quot;&gt;Config&lt;/span&gt;&lt;span style=&quot;&quot;&gt;-&amp;gt;&lt;/span&gt;TotalLength&lt;span style=&quot;&quot;&gt;)&lt;/span&gt;&lt;/div&gt;" style="rounded=0;whiteSpace=wrap;html=1;fillColor=#dae8fc;strokeColor=#6c8ebf;fontColor=default;labelBackgroundColor=none;" parent="1" vertex="1">
          <mxGeometry x="210" y="1330" width="460" height="40" as="geometry" />
        </mxCell>
        <mxCell id="QX1UlTcq-nTEOAcM45bA-31" value="&lt;div style=&quot;font-family: Consolas, &amp;quot;Courier New&amp;quot;, monospace; font-size: 14px; line-height: 19px;&quot;&gt;UsbBuildLangTable &lt;span style=&quot;&quot;&gt;(&lt;/span&gt;&lt;span style=&quot;&quot;&gt;UsbDev&lt;/span&gt;&lt;span style=&quot;&quot;&gt;)&lt;/span&gt;&lt;/div&gt;" style="rounded=0;whiteSpace=wrap;html=1;fillColor=#dae8fc;strokeColor=#6c8ebf;labelBackgroundColor=none;fontColor=default;" parent="1" vertex="1">
          <mxGeometry x="210" y="1390" width="260" height="30" as="geometry" />
        </mxCell>
        <mxCell id="QX1UlTcq-nTEOAcM45bA-33" value="&lt;div style=&quot;font-family: Consolas, &amp;quot;Courier New&amp;quot;, monospace; font-size: 14px; line-height: 19px;&quot;&gt;UsbSelectSetting &lt;span style=&quot;&quot;&gt;(&lt;/span&gt;&lt;span style=&quot;&quot;&gt;IfDesc&lt;/span&gt;&lt;span style=&quot;&quot;&gt;,&lt;/span&gt; &lt;span style=&quot;&quot;&gt;IfDesc&lt;/span&gt;&lt;span style=&quot;&quot;&gt;-&amp;gt;&lt;/span&gt;Settings&lt;span style=&quot;&quot;&gt;[&lt;/span&gt;&lt;span style=&quot;&quot;&gt;0&lt;/span&gt;&lt;span style=&quot;&quot;&gt;]-&amp;gt;&lt;/span&gt;Desc&lt;span style=&quot;&quot;&gt;.&lt;/span&gt;AlternateSetting&lt;span style=&quot;&quot;&gt;)&lt;/span&gt;&lt;/div&gt;" style="rounded=0;whiteSpace=wrap;html=1;labelBackgroundColor=none;fillColor=#dae8fc;strokeColor=#6c8ebf;" parent="1" vertex="1">
          <mxGeometry x="-120" y="1590" width="580" height="30" as="geometry" />
        </mxCell>
      </root>
    </mxGraphModel>
  </diagram>
</mxfile>
